<mxfile host="65bd71144e">
    <diagram id="T9xaCsjdj6K_f7C5xDHq" name="Page-1">
        <mxGraphModel dx="1255" dy="757" grid="1" gridSize="10" guides="1" tooltips="1" connect="1" arrows="1" fold="1" page="1" pageScale="1" pageWidth="827" pageHeight="1169" math="0" shadow="0">
            <root>
                <mxCell id="0"/>
                <mxCell id="1" parent="0"/>
                <mxCell id="88" style="edgeStyle=none;rounded=0;html=1;entryX=0.5;entryY=0;entryDx=0;entryDy=0;" parent="1" source="3" target="86" edge="1">
                    <mxGeometry relative="1" as="geometry"/>
                </mxCell>
                <mxCell id="3" value="Start" style="strokeWidth=2;html=1;shape=mxgraph.flowchart.terminator;whiteSpace=wrap;" parent="1" vertex="1">
                    <mxGeometry x="314" y="100" width="100" height="60" as="geometry"/>
                </mxCell>
                <mxCell id="91" style="edgeStyle=none;rounded=0;html=1;entryX=0.5;entryY=0;entryDx=0;entryDy=0;" parent="1" source="86" target="90" edge="1">
                    <mxGeometry relative="1" as="geometry"/>
                </mxCell>
                <mxCell id="86" value="update(time, delta)" style="shape=parallelogram;html=1;strokeWidth=2;perimeter=parallelogramPerimeter;whiteSpace=wrap;rounded=1;arcSize=12;size=0.23;" parent="1" vertex="1">
                    <mxGeometry x="280" y="200" width="166" height="60" as="geometry"/>
                </mxCell>
                <mxCell id="93" style="edgeStyle=none;rounded=0;html=1;entryX=0.5;entryY=0;entryDx=0;entryDy=0;" parent="1" source="90" target="92" edge="1">
                    <mxGeometry relative="1" as="geometry"/>
                </mxCell>
                <mxCell id="90" value="const keyLeftObj = this.input.keyboard.addKey(&quot;LEFT&quot;)" style="rounded=1;whiteSpace=wrap;html=1;absoluteArcSize=1;arcSize=14;strokeWidth=2;" parent="1" vertex="1">
                    <mxGeometry x="237" y="290" width="252" height="70" as="geometry"/>
                </mxCell>
                <mxCell id="95" style="edgeStyle=none;rounded=0;html=1;entryX=0.5;entryY=0;entryDx=0;entryDy=0;entryPerimeter=0;" parent="1" source="92" target="94" edge="1">
                    <mxGeometry relative="1" as="geometry"/>
                </mxCell>
                <mxCell id="92" value="const keyRightObj = this.input.keyboard.addKey(&quot;RIGHT&quot;)" style="rounded=1;whiteSpace=wrap;html=1;absoluteArcSize=1;arcSize=14;strokeWidth=2;" parent="1" vertex="1">
                    <mxGeometry x="238" y="400" width="252" height="70" as="geometry"/>
                </mxCell>
                <mxCell id="97" style="edgeStyle=none;rounded=0;html=1;entryX=0.5;entryY=0;entryDx=0;entryDy=0;" parent="1" source="94" target="96" edge="1">
                    <mxGeometry relative="1" as="geometry"/>
                </mxCell>
                <mxCell id="94" value="if (keyLeftObj.isDown&lt;br&gt;&amp;nbsp;=== true)" style="strokeWidth=2;html=1;shape=mxgraph.flowchart.decision;whiteSpace=wrap;" parent="1" vertex="1">
                    <mxGeometry x="283" y="500" width="160" height="140" as="geometry"/>
                </mxCell>
                <mxCell id="100" style="edgeStyle=none;rounded=0;html=1;entryX=0.5;entryY=0;entryDx=0;entryDy=0;entryPerimeter=0;" parent="1" source="96" target="99" edge="1">
                    <mxGeometry relative="1" as="geometry"/>
                </mxCell>
                <mxCell id="96" value="this.basket.x -= 25" style="rounded=1;whiteSpace=wrap;html=1;absoluteArcSize=1;arcSize=14;strokeWidth=2;" parent="1" vertex="1">
                    <mxGeometry x="286" y="670" width="156" height="70" as="geometry"/>
                </mxCell>
                <mxCell id="102" style="edgeStyle=none;rounded=0;html=1;entryX=0.5;entryY=0;entryDx=0;entryDy=0;" parent="1" source="99" target="101" edge="1">
                    <mxGeometry relative="1" as="geometry"/>
                </mxCell>
                <mxCell id="99" value="if (this.basket.x &amp;lt; 0)" style="strokeWidth=2;html=1;shape=mxgraph.flowchart.decision;whiteSpace=wrap;" parent="1" vertex="1">
                    <mxGeometry x="299" y="770" width="130" height="120" as="geometry"/>
                </mxCell>
                <mxCell id="104" style="edgeStyle=none;rounded=0;html=1;entryX=0;entryY=0.5;entryDx=0;entryDy=0;entryPerimeter=0;" parent="1" source="101" target="103" edge="1">
                    <mxGeometry relative="1" as="geometry">
                        <mxPoint x="520" y="560" as="targetPoint"/>
                        <Array as="points">
                            <mxPoint x="510" y="955"/>
                            <mxPoint x="510" y="570"/>
                        </Array>
                    </mxGeometry>
                </mxCell>
                <mxCell id="101" value="this.basket.x = 1920" style="rounded=1;whiteSpace=wrap;html=1;absoluteArcSize=1;arcSize=14;strokeWidth=2;" parent="1" vertex="1">
                    <mxGeometry x="286" y="920" width="156" height="70" as="geometry"/>
                </mxCell>
                <mxCell id="106" style="edgeStyle=none;rounded=0;html=1;entryX=0.5;entryY=0;entryDx=0;entryDy=0;" parent="1" source="103" target="105" edge="1">
                    <mxGeometry relative="1" as="geometry"/>
                </mxCell>
                <mxCell id="103" value="if (keyRightObj.isDown&lt;br&gt;&amp;nbsp;=== true)" style="strokeWidth=2;html=1;shape=mxgraph.flowchart.decision;whiteSpace=wrap;" parent="1" vertex="1">
                    <mxGeometry x="560" y="495" width="170" height="150" as="geometry"/>
                </mxCell>
                <mxCell id="108" style="edgeStyle=none;rounded=0;html=1;entryX=0.5;entryY=0;entryDx=0;entryDy=0;entryPerimeter=0;" parent="1" source="105" target="107" edge="1">
                    <mxGeometry relative="1" as="geometry"/>
                </mxCell>
                <mxCell id="105" value="this.basket.x += 25" style="rounded=1;whiteSpace=wrap;html=1;absoluteArcSize=1;arcSize=14;strokeWidth=2;" parent="1" vertex="1">
                    <mxGeometry x="567" y="670" width="156" height="70" as="geometry"/>
                </mxCell>
                <mxCell id="110" style="edgeStyle=none;rounded=0;html=1;entryX=0.5;entryY=0;entryDx=0;entryDy=0;" parent="1" source="107" target="109" edge="1">
                    <mxGeometry relative="1" as="geometry"/>
                </mxCell>
                <mxCell id="107" value="if (this.basket.x &amp;gt; 1920)" style="strokeWidth=2;html=1;shape=mxgraph.flowchart.decision;whiteSpace=wrap;" parent="1" vertex="1">
                    <mxGeometry x="580" y="770" width="130" height="120" as="geometry"/>
                </mxCell>
                <mxCell id="116" style="edgeStyle=none;rounded=0;html=1;entryX=0;entryY=0.5;entryDx=0;entryDy=0;exitX=0.5;exitY=1;exitDx=0;exitDy=0;" parent="1" source="109" target="115" edge="1">
                    <mxGeometry relative="1" as="geometry">
                        <Array as="points">
                            <mxPoint x="645" y="1040"/>
                            <mxPoint x="790" y="1040"/>
                            <mxPoint x="790" y="570"/>
                        </Array>
                    </mxGeometry>
                </mxCell>
                <mxCell id="109" value="this.basket.x = 0" style="rounded=1;whiteSpace=wrap;html=1;absoluteArcSize=1;arcSize=14;strokeWidth=2;" parent="1" vertex="1">
                    <mxGeometry x="567" y="920" width="156" height="70" as="geometry"/>
                </mxCell>
                <mxCell id="111" value="Yes" style="text;html=1;resizable=0;autosize=1;align=center;verticalAlign=middle;points=[];fillColor=none;strokeColor=none;rounded=0;" parent="1" vertex="1">
                    <mxGeometry x="320" y="645" width="40" height="20" as="geometry"/>
                </mxCell>
                <mxCell id="112" value="Yes" style="text;html=1;resizable=0;autosize=1;align=center;verticalAlign=middle;points=[];fillColor=none;strokeColor=none;rounded=0;" parent="1" vertex="1">
                    <mxGeometry x="320" y="890" width="40" height="20" as="geometry"/>
                </mxCell>
                <mxCell id="113" value="Yes" style="text;html=1;resizable=0;autosize=1;align=center;verticalAlign=middle;points=[];fillColor=none;strokeColor=none;rounded=0;" parent="1" vertex="1">
                    <mxGeometry x="610" y="890" width="40" height="20" as="geometry"/>
                </mxCell>
                <mxCell id="114" value="Yes" style="text;html=1;resizable=0;autosize=1;align=center;verticalAlign=middle;points=[];fillColor=none;strokeColor=none;rounded=0;" parent="1" vertex="1">
                    <mxGeometry x="610" y="645" width="40" height="20" as="geometry"/>
                </mxCell>
                <mxCell id="118" style="edgeStyle=none;rounded=0;html=1;entryX=0.5;entryY=0;entryDx=0;entryDy=0;" parent="1" source="115" target="117" edge="1">
                    <mxGeometry relative="1" as="geometry"/>
                </mxCell>
                <mxCell id="115" value="this.appleGroup.children.each(function (item)" style="rounded=1;whiteSpace=wrap;html=1;absoluteArcSize=1;arcSize=14;strokeWidth=2;" parent="1" vertex="1">
                    <mxGeometry x="860" y="535" width="240" height="70" as="geometry"/>
                </mxCell>
                <mxCell id="120" style="edgeStyle=none;rounded=0;html=1;entryX=0.5;entryY=0;entryDx=0;entryDy=0;entryPerimeter=0;" parent="1" source="117" target="119" edge="1">
                    <mxGeometry relative="1" as="geometry"/>
                </mxCell>
                <mxCell id="117" value="var randomNumber = 0" style="rounded=1;whiteSpace=wrap;html=1;absoluteArcSize=1;arcSize=14;strokeWidth=2;" parent="1" vertex="1">
                    <mxGeometry x="895" y="645" width="170" height="70" as="geometry"/>
                </mxCell>
                <mxCell id="122" style="edgeStyle=none;rounded=0;html=1;" parent="1" source="119" target="121" edge="1">
                    <mxGeometry relative="1" as="geometry"/>
                </mxCell>
                <mxCell id="119" value="if (item.y &amp;gt; 1080)" style="strokeWidth=2;html=1;shape=mxgraph.flowchart.decision;whiteSpace=wrap;" parent="1" vertex="1">
                    <mxGeometry x="915" y="760" width="130" height="120" as="geometry"/>
                </mxCell>
                <mxCell id="124" style="edgeStyle=none;rounded=0;html=1;entryX=0.5;entryY=0;entryDx=0;entryDy=0;entryPerimeter=0;" parent="1" source="121" target="123" edge="1">
                    <mxGeometry relative="1" as="geometry"/>
                </mxCell>
                <mxCell id="121" value="randomNumber = Math.floor(Math.random() * 2) + 1" style="rounded=1;whiteSpace=wrap;html=1;absoluteArcSize=1;arcSize=14;strokeWidth=2;" parent="1" vertex="1">
                    <mxGeometry x="891" y="910" width="178" height="70" as="geometry"/>
                </mxCell>
                <mxCell id="127" style="edgeStyle=none;rounded=0;html=1;" parent="1" source="123" target="125" edge="1">
                    <mxGeometry relative="1" as="geometry"/>
                </mxCell>
                <mxCell id="123" value="if (randomNumber &lt;br&gt;== 2)" style="strokeWidth=2;html=1;shape=mxgraph.flowchart.decision;whiteSpace=wrap;" parent="1" vertex="1">
                    <mxGeometry x="912.5" y="1020" width="135" height="130" as="geometry"/>
                </mxCell>
                <mxCell id="129" style="edgeStyle=none;rounded=0;html=1;" parent="1" source="125" target="128" edge="1">
                    <mxGeometry relative="1" as="geometry"/>
                </mxCell>
                <mxCell id="125" value="item.x = Math.floor(Math.random() * 1920) + 1" style="rounded=1;whiteSpace=wrap;html=1;absoluteArcSize=1;arcSize=14;strokeWidth=2;" parent="1" vertex="1">
                    <mxGeometry x="891" y="1180" width="178" height="70" as="geometry"/>
                </mxCell>
                <mxCell id="126" value="Yes" style="text;html=1;resizable=0;autosize=1;align=center;verticalAlign=middle;points=[];fillColor=none;strokeColor=none;rounded=0;" parent="1" vertex="1">
                    <mxGeometry x="940" y="880" width="40" height="20" as="geometry"/>
                </mxCell>
                <mxCell id="131" style="edgeStyle=none;html=1;" edge="1" parent="1" source="128">
                    <mxGeometry relative="1" as="geometry">
                        <mxPoint x="970" y="1400" as="targetPoint"/>
                    </mxGeometry>
                </mxCell>
                <mxCell id="128" value="item.y = -100" style="rounded=1;whiteSpace=wrap;html=1;absoluteArcSize=1;arcSize=14;strokeWidth=2;" parent="1" vertex="1">
                    <mxGeometry x="917.5" y="1290" width="125" height="50" as="geometry"/>
                </mxCell>
                <mxCell id="130" value="Yes" style="text;html=1;resizable=0;autosize=1;align=center;verticalAlign=middle;points=[];fillColor=none;strokeColor=none;rounded=0;" parent="1" vertex="1">
                    <mxGeometry x="940" y="1150" width="40" height="20" as="geometry"/>
                </mxCell>
            </root>
        </mxGraphModel>
    </diagram>
</mxfile>